<svg xmlns="http://www.w3.org/2000/svg" xmlns:xlink="http://www.w3.org/1999/xlink" viewBox="0 0 101 81" fill="#fff" fill-rule="evenodd" stroke="#000" stroke-linecap="round" stroke-linejoin="round"><use xlink:href="#A" x=".5" y=".5"/><symbol id="A" overflow="visible"><g stroke="none"><path d="M50.094 35.334c-.156 0-.3-.046-.44-.127L20.232 18.371a.88.88 0 0 1-.446-.771c0-.309.166-.603.446-.758L49.464.114a.91.91 0 0 1 .884 0l29.428 16.846c.266.154.442.444.442.757a.89.89 0 0 1-.442.767L50.538 35.209c-.138.079-.286.125-.444.125" fill="#3999c6"/><g fill="#59b4d9"><path d="M45.864 76.258c-.16 0-.316-.037-.452-.117L16.084 59.357c-.284-.156-.452-.444-.452-.766V24.909a.89.89 0 0 1 .452-.772c.268-.152.612-.152.896 0l29.324 16.785a.89.89 0 0 1 .436.767v33.686a.88.88 0 0 1-.436.766c-.146.081-.292.117-.44.117"/><use xlink:href="#C"/></g><use xlink:href="#C" opacity=".5"/><path d="M19.116 80a2.92 2.92 0 0 1-1.452-.386l-13.69-7.837C1.67 70.455 0 67.586 0 64.951V15.049c0-2.636 1.67-5.507 3.974-6.824L17.664.388c1.394-.795 3.172-.323 3.974 1.055s.326 3.143-1.064 3.94L6.884 13.22c-.486.279-1.064 1.271-1.064 1.828V64.95c0 .557.578 1.551 1.064 1.828l13.69 7.837a2.87 2.87 0 0 1 1.064 3.94A2.91 2.91 0 0 1 19.116 80zM80.884 0a2.92 2.92 0 0 1 1.452.386l13.69 7.837C98.33 9.544 100 12.414 100 15.049v49.902c0 2.636-1.67 5.507-3.974 6.823l-13.69 7.837c-1.394.795-3.172.323-3.974-1.055s-.326-3.143 1.064-3.94l13.69-7.837c.486-.279 1.064-1.271 1.064-1.828V15.049c0-.557-.578-1.551-1.064-1.828l-13.69-7.837a2.87 2.87 0 0 1-1.064-3.94A2.91 2.91 0 0 1 80.884 0z" fill="#7a7a7a"/></g></symbol><defs ><path id="C" d="M54.162 76.258c-.15 0-.304-.037-.452-.117a.88.88 0 0 1-.44-.766V41.908c0-.315.168-.605.44-.767l29.32-16.778c.284-.154.616-.154.896 0 .268.159.44.45.44.764v33.468c0 .321-.17.607-.44.765l-29.33 16.785c-.122.079-.28.115-.434.115"/></defs></svg>